<svg xmlns="http://www.w3.org/2000/svg" xmlns:xlink="http://www.w3.org/1999/xlink" xmlns:a="http://ns.adobe.com/AdobeSVGViewerExtensions/3.0/" version="1.1" x="0" y="0" width="90.9" height="122.2" viewBox="0 0 90.9 122.2" xml:space="preserve" enable-background="new 0 0 90.9 122.2">
  <path fill="#F9943A" d="M45.5 0C63 0.8 76.8 8.3 85.2 24c8.3 15.5 7.5 31.2-1.8 46 -9.2 14.6-18.8 28.9-28.2 43.4 -0.9 1.4-1.9 2.7-2.7 4.2 -3.3 6.2-10.3 6.1-14 0 -4.3-7.2-9.1-14-13.6-21C19 87.8 13.3 79 7.5 70.3 -10.9 42.6 6.3 4.9 39.2 0.6 41.3 0.3 43.4 0.2 45.5 0zM70.3 44c0-13.8-11.1-24.9-24.8-24.9 -13.8 0-25.1 11.1-25.1 24.9 0 13.8 11.2 24.9 25 24.9C59.2 68.8 70.3 57.7 70.3 44z"/>
  <circle fill="#fff" cx="45.4" cy="43.8" r="25.4"/>
</svg>